# xmcd
#
# Track frame offsets: 
#        150
#        15372
#        31685
#        46642
#        57595
#        74465
#        95502
#        106215
#        120012
#        132142
#        149585
#        161545
#        174985
#        193585
#        209367
#        222410
#        237280
#        253180
#        270577
#        286670
#        304040
#        316782
#        331975
#
# Disc length: 4621 seconds
#
# Revision: 0
# Processed by: cddbd v1.5.2PL0 Copyright (c) Steve Scherf et al.
# Submitted via: ExactAudioCopy v0.99pb5
#
DISCID=3c120b17
DTITLE=Various Artist - Country Gold
DYEAR=1994
DGENRE=Country
TTITLE0=Mary Chapin Carpenter - Down At The Twist And Shout
TTITLE1=Charlie Daniels Band - The Devil Went Down To Georgia
TTITLE2=Rosanne Cash - Seven Year Ache
TTITLE3=Willie Nelson - On The Road Again
TTITLE4=Johnny Cash - A Boy Named Sue
TTITLE5=Marty Robbins - El Passo
TTITLE6=Tanya Tucker - Would You Lay With Me (In A Field Of Stone)
TTITLE7=The Highway Men - The Highwayman
TTITLE8=Tammy Wynette - Stand By Your Man
TTITLE9=Willy Nelson and Ray Charles - Seven Spanish Angels
TTITLE10=Johnny Paycheck - Take This Job And Shove It
TTITLE11=Charlie Rich - Behind Closed Doors
TTITLE12=Kris Kristofferson - Me And Bobby McGee
TTITLE13=Dollly Parton - Slow Dancin With The Moon
TTITLE14=Dolly Parton - It Wasn't God Who Made Honky Tonk Angels
TTITLE15=George Jones - He Stopped Loving Her Today
TTITLE16=Ricky Van Shelton - A Bridge I Didn't Burn
TTITLE17=Ricky Skaggs - COuntry Boy
TTITLE18=Patty Loveless - Blame It On Your Heart
TTITLE19=Vern Gosdin - Chiseled In Stone
TTITLE20=Joe Diffie - If The Devil Danced (In Empty Pockets)
TTITLE21=Doug Stone - I'd Be Better Off In A Pine Box
TTITLE22=Rodney Crowell - She's Crazy For Leaving
EXTD=
EXTT0=
EXTT1=
EXTT2=
EXTT3=
EXTT4=
EXTT5=
EXTT6=
EXTT7=
EXTT8=
EXTT9=
EXTT10=
EXTT11=
EXTT12=
EXTT13=
EXTT14=
EXTT15=
EXTT16=
EXTT17=
EXTT18=
EXTT19=
EXTT20=
EXTT21=
EXTT22=
PLAYORDER=
